<svg viewBox="0 0 200 50" fill="none" xmlns="http://www.w3.org/2000/svg">
<path d="M92.4288 24.2325C92.4288 21.41 90.4917 19.5452 87.9256 19.5452C85.3844 19.5452 83.4475 21.41 83.4475 24.2325C83.4475 27.0802 85.3844 28.945 87.9256 28.945C90.4917 28.945 92.4288 27.0802 92.4288 24.2325ZM94.8692 24.2325C94.8692 28.3401 92.0263 31.0619 88.1267 31.0619C86.2401 31.0619 84.5794 30.331 83.4726 28.8946V35.7995H81.0575V17.5544H83.3719V19.6711C84.4537 18.1843 86.1643 17.4283 88.1267 17.4283C92.0263 17.4283 94.8692 20.1501 94.8692 24.2325Z" fill="black"/>
<path d="M105.711 30.1294C104.981 30.7594 103.874 31.0619 102.793 31.0619C100.101 31.0619 98.5661 29.5749 98.5661 26.8785V19.5452H96.3018V17.5543H98.5661V14.631H100.981V17.5543H104.805V19.5452H100.981V26.7778C100.981 28.2142 101.736 29.0206 103.069 29.0206C103.774 29.0206 104.453 28.7938 104.956 28.3906L105.711 30.1294Z" fill="black"/>
<path d="M108.696 17.5909H111.111V30.9108H108.696V17.5909Z" fill="black"/>
<path d="M137.786 23.2245V30.9106H135.37V23.5017C135.37 20.8808 134.113 19.5956 131.924 19.5956C129.509 19.5956 127.924 21.1329 127.924 24.0309V30.9106H125.508V23.5017C125.508 20.8808 124.251 19.5956 122.062 19.5956C119.647 19.5956 118.062 21.1329 118.062 24.0309V30.9106H115.647V17.5544H117.961V19.5453C118.917 18.1844 120.552 17.4284 122.565 17.4284C124.603 17.4284 126.313 18.2348 127.194 19.898C128.2 18.386 130.062 17.4284 132.326 17.4284C135.572 17.4284 137.786 19.2932 137.786 23.2245Z" fill="black"/>
<path d="M142.208 17.5544H144.623V30.9106H142.208V17.5544Z" fill="black"/>
<path d="M159.142 28.9198V30.9107H147.972V29.3482L155.847 19.5452H148.123V17.5544H158.941V19.142L151.066 28.9198H159.142Z" fill="black"/>
<path d="M163.343 23.3001H171.896C171.645 21.0573 169.959 19.4695 167.619 19.4695C165.305 19.4695 163.594 21.0321 163.343 23.3001ZM174.161 25.039H163.343C163.644 27.3825 165.531 28.945 168.173 28.945C169.733 28.945 171.041 28.4158 172.022 27.3321L173.356 28.8947C172.148 30.3058 170.311 31.062 168.097 31.062C163.796 31.062 160.928 28.2143 160.928 24.2326C160.928 20.276 163.77 17.4284 167.619 17.4284C171.469 17.4284 174.211 20.2004 174.211 24.3081C174.211 24.5097 174.186 24.8121 174.161 25.039Z" fill="black"/>
<path d="M184.726 17.4284V19.7721C184.525 19.7469 184.349 19.7469 184.172 19.7469C181.581 19.7469 179.971 21.3344 179.971 24.2577V30.9106H177.556V17.5544H179.87V19.7973C180.726 18.2348 182.386 17.4284 184.726 17.4284Z" fill="black"/>
<path d="M109.904 14.9056L108.086 13.085L109.904 11.2644L111.721 13.085L109.904 14.9056Z" fill="#6439FF"/>
<path d="M144.7 14.3724H142.13V11.7978H144.7V14.3724Z" fill="black"/>
<path d="M78.24 30.8608L70.3935 13.1762H67.6962L59.8497 30.8608H62.5469L69.0449 16.2158L73.0363 25.2115L67.6728 25.2136L66.5464 27.6685L74.095 27.6657L74.1103 27.6323L75.5428 30.8608H78.24Z" fill="black"/>
<path d="M48.2401 9.97512L46.4868 8.21885L38.729 15.9898V5.00006H36.2495V18.4735V20.4053L36.7117 20.8682H37.3654L38.729 19.5023L48.2401 9.97512Z" fill="#050C9C"/>
<path d="M49.6038 11.3411L38.4022 22.5617L40.1555 24.3179L51.3571 13.0974L49.6038 11.3411Z" fill="#050C9C"/>
<path d="M33.2051 20.8683H33.8588L34.321 20.4053V18.4736L34.3209 5.00001H31.8414V15.9898L24.0837 8.21891L22.3304 9.97518L31.8414 19.5023L33.2051 20.8683Z" fill="#050C9C"/>
<path d="M16 23.352H29.4507H31.3793L31.8415 22.889V22.2343L30.4778 20.8683L20.9667 11.3411L19.2134 13.0973L26.9712 20.8683H16V23.352Z" fill="#050C9C"/>
<path d="M22.3304 38.6607L24.0837 40.4169L35.2853 29.1964L33.532 27.4401L22.3304 38.6607Z" fill="#050C9C"/>
<path d="M31.8415 26.4015V25.7467L31.3792 25.2838H29.4508H16V27.7675H26.9712L19.2134 35.5385L20.9667 37.2947L30.4778 27.7675L31.8415 26.4015Z" fill="#050C9C"/>
<path d="M55.9351 22.3111V26.4779L40.9482 26.478L50.9674 36.5141L47.4608 40.0267L37.4416 29.9904V45.0027H33.2817V22.3111H55.9351Z" fill="#6439FF"/>
</svg>
