<svg
  xmlns="http://www.w3.org/2000/svg"
  width="25"
  height="25"
  fill="none"
  viewBox="-4 -4 28 28"
>
  <path
    fill-rule="evenodd"
    clip-rule="evenodd"
    d="M3.03 1.97a.75.75 0 00-1.06 1.06l15 15a.75.75 0 101.06-1.06l-2.545-2.545c1.726-1.22 2.773-2.766 3.228-3.544a1.728 1.728 0 000-1.762C17.89 7.725 15.162 3.834 10 3.834a9.318 9.318 0 00-4.155.95L3.03 1.97zm3.95 3.95l1.163 1.162a3.458 3.458 0 014.775 4.775l1.487 1.488c1.597-1.055 2.577-2.474 3.014-3.223l.003-.005a.228.228 0 000-.234l-.001-.002c-.76-1.289-3.1-4.548-7.42-4.548a7.877 7.877 0 00-3.02.587zm4.83 4.83a1.958 1.958 0 00-2.56-2.56l2.56 2.56zM2.838 7.045a.712.712 0 011.025-.001c.3.299.289.785.003 1.096a10.315 10.315 0 00-1.285 1.737l-.003.005a.228.228 0 000 .234l.001.002c.76 1.289 3.1 4.548 7.421 4.548.332 0 .653-.02.962-.056.258-.03.518.05.702.234.431.431.236 1.157-.369 1.237a9.813 9.813 0 01-1.295.085c-5.162 0-7.89-3.891-8.713-5.286a1.728 1.728 0 010-1.761c.282-.483.792-1.261 1.55-2.074zM6.542 10c0-.105.125-.152.199-.078l3.337 3.337c.074.075.027.2-.078.2A3.458 3.458 0 016.542 10z"
    fill="currentColor"
  />
</svg>