                <svg
                  xmlns="http://www.w3.org/2000/svg"
                  width="25"
                  height="25"
                  fill="none"
                  viewBox="-4 -4 28 28"
                >
                  <path
                    fillRule="evenodd"
                    clipRule="evenodd"
                    d="M10 5.333c-4.322 0-6.669 3.26-7.419 4.545l-.003.005a.228.228 0 000 .234l.001.002c.76 1.289 3.1 4.548 7.421 4.548 4.322 0 6.669-3.26 7.419-4.545l.003-.005a.228.228 0 000-.234l-.001-.002c-.76-1.289-3.1-4.548-7.421-4.548zM1.287 9.12C2.105 7.719 4.841 3.834 10 3.834c5.162 0 7.89 3.89 8.713 5.285a1.728 1.728 0 010 1.762c-.818 1.4-3.555 5.286-8.713 5.286-5.162 0-7.89-3.891-8.713-5.286a1.728 1.728 0 010-1.761z"
                    fill="currentColor"
                  />
                  <path
                    fillRule="evenodd"
                    clipRule="evenodd"
                    d="M10 8.042a1.958 1.958 0 100 3.917 1.958 1.958 0 000-3.917zM6.542 10a3.458 3.458 0 116.916 0 3.458 3.458 0 01-6.916 0z"
                    fill="currentColor"
                  />
                </svg>